<svg width="53" height="52" viewBox="0 0 53 52" fill="none" xmlns="http://www.w3.org/2000/svg">
<path fill-rule="evenodd" clip-rule="evenodd" d="M23.2129 12.1248C23.3755 9.26257 23.0643 3.57591 26.0288 3.33823C28.7872 3.1168 29.1333 7.51129 28.8137 11.5806C26.8949 11.4989 24.9845 11.717 23.2129 12.1248Z" fill="#F1B24C"/>
<path fill-rule="evenodd" clip-rule="evenodd" d="M35.7059 13.4601C34.8891 12.9954 34.0383 12.6264 33.1671 12.3425C34.4449 9.27157 36.1761 5.70719 38.4112 5.07598C41.2315 4.27868 40.5067 9.47938 37.8298 14.457C37.7668 14.5743 37.7044 14.6911 37.6429 14.8072C37.039 14.3007 36.3926 13.8508 35.7059 13.4601Z" fill="#F1B24C"/>
<path fill-rule="evenodd" clip-rule="evenodd" d="M35.2944 40.1268C34.9905 40.5643 34.6819 41.022 34.3687 41.5009L33.9758 42.338C33.9758 42.338 31.2295 45.9861 27.8721 46.2683C24.7506 46.5302 24.1949 47.1598 19.9347 43.0616C24.5455 39.892 29.1459 37.4408 35.2944 40.1268Z" fill="#F1B24C"/>
<path fill-rule="evenodd" clip-rule="evenodd" d="M11.6045 29.515C10.5059 29.8319 8.73537 30.4217 6.84718 31.3685C5.73986 30.3112 4.81236 29.3113 4.16023 28.3793C1.57386 24.6801 3.88547 22.0426 8.52714 25.3622C9.65074 26.1655 10.6509 26.9498 11.5745 27.6458C11.557 28.3814 11.5762 29.0179 11.6045 29.515Z" fill="#F1B24C"/>
<path fill-rule="evenodd" clip-rule="evenodd" d="M40.2908 17.7777C42.1116 15.0273 44.4491 11.2367 46.4938 11.3228C48.7968 11.4197 46.9647 16.3949 44.0394 19.9129C43.4418 20.6316 42.8734 21.3436 42.3471 22.0377C41.9293 20.8017 41.4235 19.6693 40.8312 18.6463C40.6587 18.3478 40.4784 18.0583 40.2908 17.7777Z" fill="#F1B24C"/>
<path fill-rule="evenodd" clip-rule="evenodd" d="M48.6677 27.4629C48.4366 27.3711 48.1992 27.2866 47.9555 27.2099C46.8528 26.8619 45.6121 26.6671 44.2498 26.6256C46.4274 24.5229 48.6121 21.7617 50.4181 22.3462C52.1203 22.8975 50.8707 25.2888 48.6677 27.4629Z" fill="#F1B24C"/>
<path d="M51.2549 35.9561C50.9166 37.5647 49.8352 39.588 47.8018 40.4898C45.4587 41.5295 42.1852 40.9236 38.3351 38.7387C37.8396 38.4576 37.3523 38.2046 36.8721 37.9781C29.0322 34.2766 23.1801 37.6228 18.0297 41.1979C17.5469 41.5325 17.0707 41.8697 16.5995 42.2029C15.5557 42.9412 14.5697 43.6382 13.5627 44.2894C10.4373 46.3091 6.75407 44.6011 4.65487 42.1599C3.25406 40.5312 2.31741 38.178 3.57177 36.8612C5.10554 35.2513 7.13268 34.0797 8.9398 33.2684C11.2931 32.2122 13.2738 31.7671 13.3088 31.7596L14.4982 31.4989L14.3336 30.3132C14.3323 30.3039 14.2896 29.9881 14.257 29.4522C14.1923 28.3852 14.1672 26.4462 14.5835 24.3132C15.3852 20.2103 17.3777 17.3208 20.5066 15.7256C21.2797 15.3965 22.1256 15.0986 23.019 14.8532C24.7384 14.3808 26.6341 14.1013 28.5277 14.1626C29.765 14.2028 31.0012 14.3886 32.1873 14.7611C32.9418 14.9981 33.6755 15.3104 34.3762 15.7094C35.121 16.1336 35.8059 16.6424 36.4299 17.2355C37.291 18.054 38.0364 19.0327 38.6643 20.1691C39.4077 21.5133 39.9872 23.0774 40.4005 24.858C40.6363 25.8724 40.8184 26.957 40.9458 28.1113L41.0565 29.1114L41.0841 29.3622L42.3625 29.2675C43.8403 29.1582 45.1453 29.2205 46.2723 29.4543C47.749 29.7599 48.9201 30.358 49.7727 31.2456C51.1331 32.6611 51.431 34.5987 51.2549 35.9561Z" fill="white"/>
</svg>
